# xmcd CD database file
#
# Track frame offsets:
#	150
#	14785
#	27780
#	42725
#	56365
#	71677
#	87000
#	102097
#	115612
#	128797
#	138065
#	150317
#
# Disc length: 2115 seconds
#
# Revision: 0
# Processed by: cddbd v1.5.2PL0 Copyright (c) Steve Scherf et al.
# Submitted via: CDex 1.51
#
DISCID=9208410c
DTITLE=Facundo Rivero - Piano Caliente
DYEAR=1900
DGENRE=Salsa
TTITLE0=Linda Cubana
TTITLE1=Piano Guaguanco
TTITLE2=Angelitos Negros
TTITLE3=Danzones
TTITLE4=Lacho
TTITLE5=Medley Frances
TTITLE6=Agite
TTITLE7=Facundadas
TTITLE8=Oyeme Mama
TTITLE9=Boleros
TTITLE10=Guagua
TTITLE11=Facundo
EXTD=
EXTT0=
EXTT1=
EXTT2=
EXTT3=
EXTT4=
EXTT5=
EXTT6=
EXTT7=
EXTT8=
EXTT9=
EXTT10=
EXTT11=
PLAYORDER=
